<svg xmlns="http://www.w3.org/2000/svg" width="877" height="500" fill="none" viewBox="0 0 877 500"><path fill="#0164D0" d="M250.34 500C388.6 500 500.68 388.072 500.68 250C500.68 111.928 388.6 0 250.34 0C112.08 0 0 111.928 0 250C0 388.072 112.08 500 250.34 500Z"/><path fill="#fff" d="M214.761 377.656C199.615 377.656 184.814 371.355 170.356 358.75C155.899 346.375 144.311 330.333 135.59 310.625C126.87 290.917 122.51 271.208 122.51 251.5C122.51 232.02 126.87 212.542 135.59 193.062C144.081 173.812 156.129 157.656 171.733 144.594C187.109 131.531 203.631 125 221.301 125H361.742V140.469H337.302C330.876 141.385 326.173 144.708 323.189 150.438V346.719C323.878 350.614 325.713 353.937 328.697 356.687C331.45 359.667 335.007 361.5 339.367 362.188H361.742V377.656H214.761ZM235.414 142.188C220.956 142.188 207.876 147.573 196.173 158.344C184.469 169.114 175.634 182.636 169.668 198.906C163.472 215.406 160.374 233.395 160.374 252.875C160.374 272.583 163.472 290.688 169.668 307.188C175.864 323.917 184.928 337.208 196.861 347.062C208.565 356.917 222.103 361.844 237.479 361.844H276.376C282.571 360.927 287.276 357.489 290.488 351.531V156.281C289.342 149.635 285.784 144.938 279.818 142.188H235.414Z"/><path stroke="#fff" stroke-width="2" d="M250.34 375L250.34 140.625"/><path fill="#000" d="M625.85 0C487.591 0 375.51 111.928 375.51 250C375.51 388.072 487.591 500 625.85 500C764.11 500 876.19 388.072 876.19 250C876.19 111.928 764.11 0 625.85 0Z"/><path fill="#fff" d="M661.43 122.345C676.576 122.345 691.377 128.647 705.834 141.251C720.291 153.626 731.88 169.668 740.6 189.376C749.32 209.084 753.68 228.793 753.68 248.501C753.68 267.981 749.32 287.459 740.6 306.938C732.109 326.188 720.061 342.345 704.457 355.407C689.082 368.47 672.559 375.001 654.89 375.001H514.449V359.532H538.888C545.314 358.615 550.018 355.293 553.001 349.563V153.282C552.313 149.386 550.478 146.063 547.494 143.313C544.74 140.334 541.184 138.501 536.823 137.813H514.449V122.345H661.43ZM640.777 357.813C655.234 357.813 668.314 352.428 680.018 341.657C691.721 330.887 700.557 317.365 706.522 301.095C712.718 284.595 715.816 266.606 715.816 247.126C715.816 227.418 712.718 209.313 706.522 192.813C700.327 176.084 691.263 162.793 679.329 152.938C667.626 143.084 654.087 138.157 638.712 138.157H599.815C593.619 139.074 588.914 142.511 585.702 148.47V343.72C586.849 350.365 590.407 355.063 596.373 357.813H640.777Z"/><path stroke="#fff" stroke-width="2" d="M625.85 125V359.375"/></svg>